<svg xmlns="http://www.w3.org/2000/svg" viewBox="0 0 64 64" role="img" aria-label="Rift Roulette icon">
  <defs>
    <radialGradient id="bg" cx="34%" cy="24%" r="76%">
      <stop offset="0" stop-color="#1c6b8f" />
      <stop offset="0.45" stop-color="#102a45" />
      <stop offset="1" stop-color="#08111f" />
    </radialGradient>
    <linearGradient id="gold" x1="14" x2="50" y1="10" y2="54">
      <stop offset="0" stop-color="#fff0a8" />
      <stop offset="0.45" stop-color="#c89b3c" />
      <stop offset="1" stop-color="#6f4f1d" />
    </linearGradient>
    <linearGradient id="pointer" x1="32" x2="32" y1="3" y2="18">
      <stop offset="0" stop-color="#f9e6a2" />
      <stop offset="1" stop-color="#b78a2d" />
    </linearGradient>
    <filter id="glow" x="-30%" y="-30%" width="160%" height="160%">
      <feGaussianBlur stdDeviation="2.6" result="blur" />
      <feMerge>
        <feMergeNode in="blur" />
        <feMergeNode in="SourceGraphic" />
      </feMerge>
    </filter>
  </defs>

  <rect width="64" height="64" rx="16" fill="#07101f" />
  <circle cx="32" cy="34" r="23" fill="url(#bg)" stroke="url(#gold)" stroke-width="4" />

  <path d="M32 11v46" stroke="#d9b65a" stroke-opacity=".52" stroke-width="2" />
  <path d="M9 34h46" stroke="#d9b65a" stroke-opacity=".52" stroke-width="2" />
  <path d="M15.7 17.7 48.3 50.3" stroke="#d9b65a" stroke-opacity=".34" stroke-width="2" />
  <path d="M48.3 17.7 15.7 50.3" stroke="#d9b65a" stroke-opacity=".34" stroke-width="2" />

  <path d="M32 6 24.5 20h15L32 6Z" fill="url(#pointer)" stroke="#fff0a8" stroke-width="1.2" />
  <circle cx="32" cy="34" r="8" fill="#f8f2d8" stroke="url(#gold)" stroke-width="3" />
  <path d="M28 36c4.8-8.4 11.7-9.5 11.7-9.5S37 36.2 27 42c0 0-1.2-2.8 1-6Z" fill="#5bd6d1" filter="url(#glow)" opacity=".9" />
  <circle cx="32" cy="34" r="28" fill="none" stroke="#5bd6d1" stroke-opacity=".18" stroke-width="2" />
</svg>
